<svg width="299" height="303" viewBox="0 0 299 303" fill="none" xmlns="http://www.w3.org/2000/svg">
<g clip-path="url(#clip0_631_6483)">
<path d="M180.237 261.349C166.733 259.257 157.488 246.494 159.61 232.857C161.717 219.204 174.39 209.84 187.895 211.933C201.399 214.025 210.644 226.787 208.522 240.425C206.415 254.078 193.742 263.441 180.237 261.349ZM55.9244 205.566C52.5558 205.047 50.2556 201.871 50.7898 198.473C51.3241 195.075 54.4701 192.745 57.8387 193.264C61.2074 193.783 63.5075 196.959 62.9733 200.357C62.4391 203.756 59.293 206.086 55.9244 205.566ZM242.921 73.1508C242.95 74.0709 242.891 75.0058 242.742 75.9555C241.437 84.3697 233.631 90.1424 225.306 88.8513C216.981 87.5603 211.282 79.6952 212.588 71.281C213.256 66.933 215.66 63.2972 218.984 60.9674L100.726 0.866211L86.6576 28.9431C90.6643 27.3107 95.1311 26.6874 99.7018 27.3998C113.206 29.4922 122.451 42.2544 120.329 55.8922C118.222 69.5299 105.549 78.9087 92.0444 76.8162C81.9682 75.2581 74.2812 67.764 71.892 58.4001L0.290039 201.367L114.453 259.405C117.732 255.012 123.238 252.519 129.01 253.41C137.335 254.701 143.034 262.566 141.728 270.98C141.624 271.692 141.461 272.36 141.268 273.028L198.564 302.158L299 101.643L242.921 73.136V73.1508Z" fill="#FFD700"/>
<path d="M161.955 248.068C159.699 243.571 158.764 238.333 159.595 232.946C161.51 220.584 172.076 211.74 184.096 211.74C185.342 211.74 186.604 211.829 187.88 212.037C188.473 212.126 189.052 212.244 189.616 212.378C189.913 211.072 190.195 209.825 190.462 208.683C189.809 208.534 189.141 208.401 188.459 208.297C187.019 208.074 185.55 207.956 184.096 207.956C177.344 207.956 170.77 210.404 165.591 214.841C160.367 219.323 156.909 225.541 155.841 232.382C154.936 238.273 155.826 244.165 158.364 249.403L161.94 248.082L161.955 248.068Z" fill="#FFD700"/>
<path d="M118.905 43.0114C120.433 46.9736 120.982 51.3959 120.285 55.9072C118.37 68.2687 107.79 77.1132 95.7843 77.1132C94.5377 77.1132 93.2764 77.0242 92.0001 76.8164C87.9044 76.1783 84.2093 74.5608 81.0929 72.2458L78.6592 75.1544C82.3246 77.9294 86.6875 79.8289 91.4214 80.556C92.8609 80.7786 94.33 80.8974 95.7843 80.8974C102.536 80.8974 109.11 78.4488 114.29 74.0117C119.513 69.5301 122.971 63.2974 124.039 56.4711C124.87 51.1584 124.217 45.8309 122.214 40.9932L118.92 42.9965L118.905 43.0114Z" fill="#FFD700"/>
<path d="M229.372 88.8958C228.066 89.059 226.73 89.0442 225.395 88.8364C224.638 88.7325 223.866 88.5545 223.109 88.317C216.253 86.1949 211.98 79.6357 212.425 72.7056L208.596 73.3288C208.537 76.5046 209.264 79.6654 210.778 82.5592C213.137 87.1002 217.129 90.4243 221.996 91.9379C222.931 92.2199 223.881 92.4425 224.846 92.5909C226.107 92.769 227.368 92.8283 228.63 92.7541L229.387 88.8958H229.372Z" fill="#FFD700"/>
<path d="M202.779 121.781C202.972 121.825 203.165 121.84 203.358 121.84C204.589 121.84 205.702 120.979 205.969 119.733L206.889 115.489C207.201 114.049 206.296 112.61 204.842 112.298C203.402 111.987 201.963 112.892 201.651 114.346L200.716 118.59C200.404 120.045 201.31 121.469 202.764 121.781" fill="#4685F1"/>
<path d="M91.9407 142.304C91.7181 141.295 91.3916 140.672 86.168 136.621C83.7046 134.706 80.7218 132.495 78.9262 131.249C68.3009 123.888 67.648 121.425 67.8706 118.486C68.1674 114.673 70.794 107.178 75.7208 102.474C81.6419 96.8351 89.4179 95.1582 94.6267 98.3784C98.8412 100.99 101.661 107.386 98.856 114.569C95.6952 122.686 89.8928 124.363 89.596 124.437C88.1714 124.793 87.3107 126.248 87.6668 127.672C88.023 129.112 89.4773 129.987 90.9167 129.631C91.2729 129.542 99.6277 127.361 103.857 116.513C105.386 112.595 105.712 108.247 104.777 104.255C103.723 99.7288 101.186 96.1228 97.4611 93.8226C90.1748 89.3261 79.7127 91.285 72.0405 98.5862C65.7336 104.581 62.8696 113.723 62.5282 118.071C62.0682 124.125 65.1846 128.236 75.8692 135.641C78.941 137.778 84.5653 142.067 86.5093 143.788C86.0196 145.376 84.3576 148.7 81.5825 150.57C79.594 151.906 77.4867 152.173 75.1421 151.386C68.9984 149.338 70.0668 141.488 70.1114 141.162C70.334 139.692 69.3249 138.327 67.8706 138.105C66.4163 137.882 65.0362 138.891 64.8136 140.345C64.1458 144.708 65.0955 153.686 73.4503 156.461C74.8601 156.936 76.255 157.159 77.6351 157.159C80.7515 157.159 83.7491 155.972 86.3016 153.642C90.1302 150.169 92.4749 144.679 91.9259 142.275" fill="#4685F1"/>
<path d="M113.325 130.952C115.135 131.293 116.411 132.05 117.213 133.237C117.925 134.306 118.192 135.582 118.266 136.68L103.634 134.721C105.326 132.287 108.309 129.987 113.339 130.937M96.3182 138.283C95.695 141.266 95.873 146.029 98.4255 149.62C100.325 152.291 103.248 153.968 106.899 154.458C107.641 154.562 108.353 154.606 109.036 154.606C116.115 154.606 120.804 149.917 121.026 149.695C122.065 148.641 122.036 146.964 120.997 145.925C119.958 144.886 118.251 144.901 117.213 145.925C117.049 146.088 113.161 149.887 107.611 149.145C105.415 148.849 103.842 148.003 102.803 146.534C101.304 144.412 101.26 141.473 101.482 139.856L120.388 142.379C121.768 142.557 123.074 141.651 123.356 140.286C123.475 139.707 124.484 134.528 121.679 130.299C120.062 127.865 117.584 126.307 114.319 125.684C103.471 123.621 97.6093 132.08 96.3182 138.283Z" fill="#4685F1"/>
<path d="M108.324 158.183C92.0888 157.441 84.5056 167.22 84.194 167.636C83.3036 168.808 83.5411 170.5 84.7134 171.39C85.9006 172.281 87.5775 172.043 88.4679 170.871C88.5272 170.797 94.6412 162.931 108.086 163.54C113.354 163.777 117.405 165.336 119.81 168.051C121.679 170.144 122.54 172.963 122.317 176.198C122.065 179.834 120.017 183.128 116.678 185.251C114.304 186.749 109.392 188.797 102.165 186.571L106.379 170.307C106.75 168.882 105.89 167.413 104.465 167.042C103.041 166.671 101.571 167.532 101.2 168.971L91.0055 208.282C90.6345 209.706 91.4952 211.176 92.9346 211.547C93.1572 211.606 93.3798 211.636 93.6024 211.636C94.7896 211.636 95.8878 210.834 96.1994 209.632L100.829 191.78C103.382 192.537 105.905 192.908 108.353 192.908C112.449 192.908 116.292 191.869 119.557 189.791C124.336 186.749 127.289 181.941 127.66 176.584C127.986 171.88 126.651 167.695 123.801 164.504C120.403 160.691 115.061 158.524 108.324 158.212" fill="#4685F1"/>
<path d="M139.265 139.485C139.265 139.485 139.28 139.514 139.295 139.529C139.725 140.034 149.771 151.846 154.951 155.393C155.411 155.705 155.945 155.868 156.464 155.868C157.325 155.868 158.156 155.467 158.675 154.695C159.506 153.479 159.195 151.802 157.978 150.971C155.025 148.952 149.549 143.076 145.943 139.01C147.664 138.565 149.297 137.882 150.781 136.947C154.847 134.365 157.369 130.269 157.681 125.698C157.933 121.974 156.583 118.323 153.867 115.414C150.721 112.046 146.002 110.042 141.239 110.042H141.164C127.675 110.102 121.338 117.626 121.071 117.937C120.136 119.08 120.3 120.772 121.442 121.707C122.585 122.641 124.277 122.478 125.212 121.336C125.256 121.276 130.183 115.444 141.179 115.4H141.224C144.533 115.4 147.783 116.765 149.95 119.08C151.641 120.89 152.487 123.101 152.339 125.327C152.146 128.177 150.528 130.759 147.916 132.421C144.785 134.409 140.764 134.766 136.475 133.489L139.962 122.493C140.408 121.083 139.621 119.57 138.211 119.124C136.801 118.679 135.288 119.466 134.843 120.876L124.01 155.052C123.564 156.461 124.351 157.975 125.761 158.42C126.028 158.509 126.295 158.539 126.577 158.539C127.72 158.539 128.773 157.812 129.129 156.669L134.857 138.594C136.341 139.039 137.811 139.336 139.265 139.485Z" fill="#4685F1"/>
<path d="M175.162 153.553C175.785 153.612 176.394 153.642 176.987 153.642C184.63 153.642 189.512 148.715 189.735 148.492C190.106 148.106 190.358 147.632 190.447 147.097L192.154 137.659C192.406 136.279 191.56 134.944 190.21 134.587L177.982 131.352C176.557 130.967 175.088 131.827 174.702 133.252C174.331 134.676 175.177 136.146 176.601 136.531L186.44 139.143L185.342 145.242C184.021 146.326 180.519 148.715 175.711 148.225C172.773 147.928 170.235 146.623 168.588 144.56C166.911 142.467 166.243 139.677 166.629 136.487C167.074 132.822 168.885 124.229 175.948 123.725C183.368 123.176 187.924 127.91 188.132 128.117C189.141 129.201 190.818 129.26 191.916 128.266C192.999 127.271 193.074 125.565 192.079 124.482C191.827 124.2 185.654 117.626 175.577 118.382C167.92 118.946 162.593 125.476 161.331 135.849C160.767 140.494 161.836 144.664 164.418 147.914C166.97 151.119 170.799 153.122 175.177 153.568" fill="#4685F1"/>
<path d="M137.989 166.998C136.549 166.686 135.11 167.591 134.798 169.031L129.56 192.567C129.233 194.006 130.153 195.446 131.593 195.757C131.785 195.802 131.978 195.817 132.171 195.817C133.403 195.817 134.501 194.971 134.783 193.71L140.022 170.174C140.348 168.734 139.428 167.295 137.989 166.983" fill="#4685F1"/>
<path d="M137.336 156.536L136.401 160.78C136.089 162.219 136.994 163.659 138.449 163.97C138.641 164.015 138.834 164.03 139.027 164.03C140.259 164.03 141.372 163.169 141.639 161.922L142.559 157.678C142.871 156.224 141.966 154.799 140.511 154.488C139.072 154.176 137.632 155.081 137.321 156.536" fill="#4685F1"/>
<path d="M195.923 153.583C196.116 153.627 196.309 153.642 196.502 153.642C197.734 153.642 198.832 152.796 199.114 151.55L204.352 128.014C204.679 126.574 203.759 125.135 202.319 124.823C200.88 124.511 199.44 125.417 199.129 126.856L193.89 150.392C193.564 151.832 194.484 153.271 195.923 153.583Z" fill="#4685F1"/>
<path d="M233.898 136.621C233.379 139.856 231.36 143.002 228.481 145.02C225.781 146.92 222.605 147.632 219.548 147.053C217.174 146.593 215.126 145.243 213.79 143.254C212.44 141.251 211.965 138.862 212.425 136.502C213.152 132.866 215.823 129.305 219.414 127.212C221.358 126.085 223.362 125.506 225.276 125.506C226.241 125.506 227.19 125.654 228.096 125.951C232.77 127.509 234.551 132.495 233.898 136.606M229.787 120.876C225.632 119.496 221.002 120.104 216.728 122.582C211.846 125.417 208.195 130.358 207.172 135.463C206.43 139.233 207.201 143.061 209.338 146.252C211.49 149.442 214.755 151.594 218.539 152.321C219.578 152.514 220.616 152.618 221.655 152.618C225.128 152.618 228.556 151.52 231.553 149.413C235.649 146.534 238.439 142.186 239.181 137.467C240.353 130.062 236.406 123.087 229.772 120.876" fill="#4685F1"/>
<path d="M170.146 187.892C169.924 186.438 168.543 185.428 167.089 185.651L148.777 188.515L169.582 162.531C170.265 161.67 170.354 160.498 169.82 159.533C169.285 158.583 168.217 158.049 167.134 158.197L146.833 160.898C145.364 161.091 144.34 162.442 144.533 163.911C144.726 165.38 146.076 166.404 147.545 166.211L161.227 164.386L140.274 190.563C139.576 191.424 139.487 192.626 140.051 193.575C140.541 194.406 141.416 194.911 142.366 194.911C142.5 194.911 142.648 194.911 142.782 194.881L167.905 190.949C169.374 190.726 170.369 189.346 170.146 187.892Z" fill="#4685F1"/>
<path d="M199.93 190.014L175.978 194.244L199.84 164.519C200.538 163.644 200.627 162.427 200.048 161.462C199.47 160.498 198.371 159.993 197.258 160.201L174.272 164.386C172.817 164.653 171.853 166.048 172.12 167.502C172.387 168.957 173.782 169.921 175.236 169.654L191.159 166.76L167.341 196.44C166.644 197.315 166.555 198.517 167.134 199.482C167.623 200.313 168.499 200.803 169.434 200.803C169.582 200.803 169.745 200.803 169.894 200.758L200.864 195.297C202.319 195.045 203.298 193.65 203.031 192.196C202.779 190.741 201.384 189.762 199.93 190.029" fill="#4685F1"/>
<path d="M212.261 172.845L218.984 164.46L223.005 171.954L212.261 172.845ZM229.683 173.067C229.683 173.067 229.683 173.037 229.668 173.037L221.803 158.361C221.373 157.56 220.587 157.04 219.681 156.951C218.776 156.862 217.901 157.248 217.337 157.945L198.297 181.704C197.377 182.861 197.555 184.538 198.713 185.473C199.202 185.874 199.796 186.067 200.39 186.067C201.176 186.067 201.948 185.725 202.482 185.058L207.646 178.602L225.751 177.104L228.229 181.719C228.926 183.025 230.544 183.514 231.85 182.817C233.156 182.119 233.646 180.487 232.948 179.181L229.668 173.052L229.683 173.067Z" fill="#4685F1"/>
</g>
<defs>
<clipPath id="clip0_631_6483">
<rect width="298.71" height="301.307" fill="white" transform="translate(0.290039 0.866211)"/>
</clipPath>
</defs>
</svg>
