<svg width="103" height="39" viewBox="0 0 103 39" fill="none" xmlns="http://www.w3.org/2000/svg">
<g clip-path="url(#clip0_646_8604)">
<path d="M58.3651 34.173C56.7341 34.173 55.4108 32.8481 55.4108 31.2152C55.4108 29.5823 56.7341 28.2574 58.3651 28.2574C59.9961 28.2574 61.3194 29.5823 61.3194 31.2152C61.3194 32.8481 59.9961 34.173 58.3651 34.173ZM46.4173 31.2152C45.7472 31.2152 45.1993 30.6709 45.1993 29.9958C45.1993 29.3207 45.743 28.7764 46.4173 28.7764C47.0916 28.7764 47.6352 29.3207 47.6352 29.9958C47.6352 30.6709 47.0916 31.2152 46.4173 31.2152ZM56.9533 5C56.9027 7.21097 55.0989 8.99156 52.8737 8.99156C50.6485 8.99156 48.7942 7.16456 48.7942 4.90717C48.7942 4.04641 49.0597 3.24473 49.5191 2.5865L41.5665 0L39.611 6.03797C39.7037 6.02954 39.7922 6.0211 39.8892 6.0211C41.2336 6.0211 42.3251 7.11392 42.3251 8.45992C42.3251 9.80591 41.2336 10.8987 39.8892 10.8987C39.257 10.8987 38.6754 10.6582 38.2455 10.2574L32.0293 29.4473L50.2229 35.3587C50.2692 34.4051 51.0531 33.6456 52.0182 33.6456C52.9833 33.6456 53.8135 34.4515 53.8135 35.443C53.8135 35.8059 53.704 36.1435 53.5228 36.4262L61.4416 39L70.983 9.55274L56.9575 4.99578L56.9533 5Z" fill="#FFD700"/>
<path d="M7.33816 21.629C6.57535 21.0341 5.6524 20.3505 5.0961 19.9623C1.80465 17.6796 1.60236 16.9159 1.674 16.0045C1.76251 14.8189 2.57589 12.4982 4.10571 11.0383C5.93898 9.29146 8.34962 8.76825 9.96373 9.76825C11.2702 10.5784 12.1426 12.5615 11.2744 14.7893C10.2967 17.3041 8.50134 17.8231 8.40862 17.8484C7.96611 17.9623 7.7006 18.4096 7.81017 18.8526C7.91975 19.2999 8.37069 19.5699 8.8132 19.4602C8.92278 19.4307 11.5104 18.7556 12.8211 15.3885C13.2931 14.1733 13.3943 12.8231 13.1035 11.5868C12.7747 10.186 11.9909 9.06783 10.8361 8.35053C8.57719 6.95391 5.34053 7.5615 2.96361 9.83154C1.00391 11.6965 0.114675 14.532 0.0135293 15.8822C-0.12976 17.7598 0.839552 19.0341 4.14786 21.3294C5.10031 21.9919 6.84086 23.321 7.44352 23.8569C7.2918 24.3463 6.77765 25.3801 5.91791 25.9581C5.3026 26.3716 4.64937 26.456 3.9245 26.2113C2.0238 25.5784 2.35252 23.1396 2.36938 23.0425C2.44103 22.5868 2.12916 22.1649 1.674 22.0931C1.21885 22.0214 0.797408 22.3337 0.729978 22.7893C0.523472 24.1396 0.814266 26.9244 3.40191 27.7893C3.83599 27.9328 4.27008 28.0045 4.69995 28.0045C5.66504 28.0045 6.59221 27.6332 7.38452 26.9159C8.57298 25.84 9.29786 24.1353 9.12928 23.3885C9.05764 23.0763 8.96071 22.8822 7.34238 21.6248" fill="#4685F1"/>
<path d="M12.7399 21.0422C13.2667 20.2869 14.1854 19.5738 15.7448 19.8692C16.3053 19.9747 16.7014 20.211 16.9501 20.5781C17.1734 20.9072 17.2535 21.308 17.2746 21.6456L12.7399 21.038V21.0422ZM16.0566 18.2363C12.6978 17.5949 10.8813 20.2194 10.481 22.1435C10.2871 23.0675 10.3419 24.5443 11.13 25.6625C11.7158 26.4895 12.6219 27.0084 13.7514 27.1603C13.9789 27.1899 14.2023 27.2068 14.413 27.2068C16.6045 27.2068 18.0585 25.7511 18.1259 25.6836C18.4462 25.3587 18.442 24.8355 18.1175 24.5148C17.793 24.1941 17.2704 24.1941 16.9459 24.5148C16.8953 24.5654 15.6942 25.7426 13.9747 25.5148C13.2962 25.4262 12.8073 25.1603 12.487 24.7046C12.0234 24.0464 12.0108 23.135 12.0824 22.6371L17.9405 23.4177C18.3703 23.4768 18.7707 23.1941 18.8634 22.7679C18.9014 22.5907 19.2132 20.9831 18.3451 19.6709C17.8435 18.9156 17.0765 18.4346 16.0651 18.2405" fill="#4685F1"/>
<path d="M29.5776 26.0807C28.6631 25.4562 26.9689 23.6334 25.852 22.3718C26.3873 22.2368 26.8888 22.0216 27.3482 21.7304C28.6083 20.9288 29.3879 19.6587 29.4849 18.2452C29.5649 17.0891 29.1435 15.9583 28.3006 15.0553C27.3229 14.0131 25.8605 13.3887 24.3854 13.3887H24.3644C20.1879 13.4055 18.224 15.7389 18.1439 15.8359C17.8531 16.1904 17.9037 16.7136 18.2577 17.0047C18.6117 17.2958 19.1343 17.2452 19.4251 16.8908C19.4419 16.8739 20.9676 15.0638 24.3728 15.0469H24.3896C25.4137 15.0469 26.421 15.4731 27.0911 16.1861C27.6137 16.7473 27.875 17.4351 27.8286 18.1228C27.7696 19.0047 27.2681 19.8064 26.4589 20.3212C25.4854 20.9414 24.2421 21.0553 22.9146 20.6545L23.9935 17.2452C24.1326 16.8064 23.8923 16.3423 23.4541 16.203C23.0158 16.0638 22.5522 16.3085 22.4131 16.7431L19.0584 27.338C18.9194 27.7769 19.1638 28.241 19.5979 28.3802C19.6822 28.4055 19.7664 28.4182 19.8507 28.4182C20.2047 28.4182 20.5293 28.1904 20.643 27.8359L22.4173 22.2326C22.8767 22.3718 23.3318 22.4604 23.7786 22.5068C23.7786 22.511 23.787 22.5153 23.7912 22.5195C23.9218 22.6756 27.0363 26.3423 28.642 27.4393C28.7853 27.5363 28.9496 27.5828 29.1098 27.5828C29.3753 27.5828 29.6366 27.4562 29.7967 27.2199C30.0538 26.8401 29.9569 26.3254 29.5818 26.0638" fill="#4685F1"/>
<path d="M35.1432 17.6243C37.44 17.4555 38.8519 18.9196 38.9151 18.9871C39.2269 19.3205 39.7495 19.3416 40.0867 19.0335C40.4238 18.7213 40.4449 18.1981 40.1373 17.8606C40.0572 17.7719 38.1481 15.7382 35.0252 15.966C32.6567 16.139 31.0046 18.1643 30.6127 21.3838C30.4357 22.8268 30.7686 24.1179 31.5694 25.1264C32.3617 26.1179 33.5459 26.7424 34.903 26.8774C35.0968 26.8985 35.2823 26.907 35.4677 26.907C37.8362 26.907 39.3492 25.3795 39.4166 25.3078C39.5304 25.1897 39.6105 25.0378 39.64 24.8774L40.171 21.9534C40.2468 21.5272 39.9855 21.1137 39.5683 21.004L35.7796 19.9998C35.3371 19.8817 34.8819 20.1475 34.7639 20.5905C34.6459 21.0335 34.9114 21.4892 35.3539 21.6074L38.4009 22.4133L38.0596 24.3036C37.6508 24.6369 36.5634 25.3795 35.0758 25.2276C34.1655 25.1348 33.3816 24.7297 32.8716 24.0926C32.3533 23.4428 32.1468 22.5779 32.2648 21.5905C32.4038 20.4555 32.9601 17.793 35.1516 17.6285" fill="#4685F1"/>
<path d="M43.3112 17.9659C42.8645 17.8646 42.422 18.1473 42.3208 18.5988L40.6983 25.8984C40.5971 26.3456 40.8795 26.7887 41.3262 26.8899C41.3852 26.9026 41.4484 26.911 41.5074 26.911C41.8867 26.911 42.2323 26.6494 42.3166 26.2612L43.9392 18.9616C44.0361 18.5144 43.7579 18.0714 43.307 17.9701" fill="#4685F1"/>
<path d="M44.0948 14.0884C43.6481 13.9914 43.2056 14.2741 43.1045 14.7213L42.8179 16.0336C42.7209 16.4808 43.0033 16.9239 43.45 17.0251C43.509 17.0378 43.568 17.0462 43.627 17.0462C44.0106 17.0462 44.3519 16.7804 44.4362 16.3922L44.7228 15.0758C44.8197 14.6285 44.5374 14.1855 44.0906 14.0842" fill="#4685F1"/>
<path d="M53.0897 21.6291C52.9296 22.6333 52.3016 23.608 51.4124 24.2325C50.5737 24.819 49.5918 25.0426 48.6477 24.8612C47.9144 24.7219 47.2781 24.3 46.865 23.684C46.4478 23.0637 46.3003 22.3211 46.4436 21.5911C46.667 20.4603 47.4972 19.3591 48.6098 18.7135C49.2125 18.3633 49.832 18.1861 50.4262 18.1861C50.7254 18.1861 51.0204 18.2325 51.2986 18.3253C52.7484 18.8063 53.3004 20.3548 53.0981 21.6291M51.817 16.7473C50.5316 16.3169 49.0945 16.5067 47.7711 17.2747C46.2582 18.1523 45.1245 19.684 44.8126 21.2662C44.5808 22.435 44.8211 23.6207 45.4869 24.6122C46.1528 25.5996 47.1643 26.2705 48.3359 26.4941C48.6562 26.5574 48.9807 26.5869 49.301 26.5869C50.3756 26.5869 51.4377 26.2451 52.3691 25.5954C53.6376 24.7051 54.5015 23.3548 54.7333 21.8907C55.0958 19.5954 53.8736 17.4308 51.8212 16.7473" fill="#4685F1"/>
<path d="M66.4024 10.6328C61.3746 10.4007 59.023 13.4345 58.9261 13.5653C58.6479 13.9324 58.7238 14.4513 59.0862 14.7298C59.4529 15.0083 59.9712 14.9324 60.2494 14.5695C60.2705 14.5442 62.1627 12.1054 66.3266 12.2952C67.9575 12.3712 69.2134 12.8522 69.9594 13.6918C70.5367 14.3416 70.8065 15.2151 70.7348 16.2193C70.659 17.3459 70.0226 18.3712 68.9901 19.0252C68.2567 19.4935 66.7353 20.1264 64.4933 19.4345L65.7998 14.3881C65.9135 13.945 65.648 13.4893 65.2055 13.3754C64.763 13.2615 64.3079 13.5273 64.1941 13.9703L61.0375 26.1602C60.9237 26.6032 61.1892 27.0589 61.6317 27.1729C61.7034 27.1897 61.7708 27.1982 61.8424 27.1982C62.2133 27.1982 62.5462 26.9492 62.6432 26.5737L64.0761 21.0378C64.8641 21.2699 65.648 21.3881 66.4066 21.3881C67.6752 21.3881 68.8678 21.0632 69.8751 20.4218C71.3543 19.4809 72.2689 17.9872 72.3869 16.329C72.488 14.8691 72.075 13.5737 71.1942 12.5821C70.1448 11.4007 68.4843 10.7256 66.3982 10.6328" fill="#4685F1"/>
<path d="M73.9675 18.3591C73.5207 18.2621 73.0782 18.5405 72.9771 18.992L71.3545 26.2916C71.2534 26.7389 71.5357 27.1819 71.9825 27.2832C72.0415 27.2958 72.1047 27.3043 72.1637 27.3043C72.543 27.3043 72.8886 27.0427 72.9729 26.6545L74.5954 19.3549C74.6923 18.9076 74.4142 18.4646 73.9632 18.3633" fill="#4685F1"/>
<path d="M74.1105 17.4177C74.1695 17.4304 74.2285 17.4388 74.2875 17.4388C74.671 17.4388 75.0124 17.173 75.0967 16.7848L75.3833 15.4726C75.4802 15.0253 75.1978 14.5823 74.7511 14.481C74.3044 14.3839 73.8619 14.6666 73.7607 15.1139L73.4741 16.4304C73.3772 16.8776 73.6596 17.3207 74.1063 17.4219" fill="#4685F1"/>
<path d="M84.7763 24.8353C84.7047 24.3838 84.279 24.0716 83.8281 24.1433L78.1597 25.0336L84.6035 16.9745C84.8142 16.7087 84.8437 16.3416 84.6794 16.0463C84.5108 15.7509 84.1821 15.5864 83.8449 15.6328L77.557 16.4682C77.1019 16.5273 76.7816 16.945 76.8448 17.4007C76.9038 17.8564 77.321 18.1771 77.7762 18.1138L82.0159 17.5484L75.5257 25.6623C75.3108 25.9281 75.2855 26.3037 75.454 26.599C75.6058 26.8564 75.8797 27.0125 76.1705 27.0125C76.2126 27.0125 76.2548 27.0125 76.3011 27.0041L84.0851 25.7847C84.5361 25.7129 84.8479 25.2868 84.7763 24.8353Z" fill="#4685F1"/>
<path d="M93.9854 25.4933L86.5681 26.8014L93.9601 17.582C94.1793 17.3119 94.2046 16.9364 94.0276 16.6368C93.8506 16.3372 93.5092 16.1811 93.1678 16.2444L86.0455 17.544C85.5945 17.6241 85.2953 18.0587 85.3754 18.5102C85.4597 18.9617 85.8895 19.2613 86.3405 19.1811L91.2713 18.2824L83.8919 27.4849C83.677 27.7549 83.6475 28.1305 83.8245 28.4301C83.9762 28.6874 84.2501 28.8393 84.5367 28.8393C84.5831 28.8393 84.6337 28.8393 84.68 28.8267L94.272 27.1347C94.7229 27.0545 95.0264 26.6241 94.9463 26.1727C94.8662 25.7212 94.4364 25.4216 93.9854 25.4976" fill="#4685F1"/>
<path d="M96.492 20.2192L98.5739 17.62L99.8172 19.9449L96.492 20.2192ZM102.902 22.1854L101.891 20.2951C101.891 20.2951 101.874 20.2614 101.861 20.2445L99.4421 15.7213C99.3114 15.4766 99.0628 15.312 98.7888 15.2867C98.5107 15.2614 98.241 15.3753 98.064 15.5947L92.168 22.966C91.8814 23.3247 91.9404 23.8479 92.2987 24.1348C92.4504 24.2571 92.6358 24.3162 92.817 24.3162C93.0615 24.3162 93.3017 24.2107 93.4661 24.004L95.0675 22.004L100.677 21.5398L101.444 22.9702C101.659 23.3753 102.165 23.5272 102.569 23.312C102.974 23.0968 103.125 22.5905 102.911 22.1854" fill="#4685F1"/>
</g>
<defs>
<clipPath id="clip0_646_8604">
<rect width="103" height="39" fill="white"/>
</clipPath>
</defs>
</svg>
